<mxfile host="app.diagrams.net" modified="2024-05-04T21:57:41.150Z" agent="Mozilla/5.0 (Windows NT 10.0; Win64; x64) AppleWebKit/537.36 (KHTML, like Gecko) Chrome/124.0.0.0 Safari/537.36" etag="ibwUB4lMfurvSgxNBMg8" version="24.3.1" type="device">
  <diagram id="C5RBs43oDa-KdzZeNtuy" name="Page-1">
    <mxGraphModel dx="2128" dy="434" grid="1" gridSize="10" guides="1" tooltips="1" connect="1" arrows="1" fold="1" page="1" pageScale="1" pageWidth="827" pageHeight="1169" math="0" shadow="0">
      <root>
        <mxCell id="WIyWlLk6GJQsqaUBKTNV-0" />
        <mxCell id="WIyWlLk6GJQsqaUBKTNV-1" parent="WIyWlLk6GJQsqaUBKTNV-0" />
        <mxCell id="_FJ0eizZe0EGMl9TzmrN-8" value="Endereco" style="swimlane;fontStyle=0;childLayout=stackLayout;horizontal=1;startSize=26;fillColor=none;horizontalStack=0;resizeParent=1;resizeParentMax=0;resizeLast=0;collapsible=1;marginBottom=0;whiteSpace=wrap;html=1;" parent="WIyWlLk6GJQsqaUBKTNV-1" vertex="1">
          <mxGeometry x="-204" y="602" width="140" height="200" as="geometry" />
        </mxCell>
        <mxCell id="_FJ0eizZe0EGMl9TzmrN-9" value="# Long: id" style="text;strokeColor=none;fillColor=none;align=left;verticalAlign=top;spacingLeft=4;spacingRight=4;overflow=hidden;rotatable=0;points=[[0,0.5],[1,0.5]];portConstraint=eastwest;whiteSpace=wrap;html=1;" parent="_FJ0eizZe0EGMl9TzmrN-8" vertex="1">
          <mxGeometry y="26" width="140" height="26" as="geometry" />
        </mxCell>
        <mxCell id="_FJ0eizZe0EGMl9TzmrN-10" value="# String: logradouro&lt;div&gt;&lt;br&gt;&lt;/div&gt;" style="text;strokeColor=none;fillColor=none;align=left;verticalAlign=top;spacingLeft=4;spacingRight=4;overflow=hidden;rotatable=0;points=[[0,0.5],[1,0.5]];portConstraint=eastwest;whiteSpace=wrap;html=1;" parent="_FJ0eizZe0EGMl9TzmrN-8" vertex="1">
          <mxGeometry y="52" width="140" height="26" as="geometry" />
        </mxCell>
        <mxCell id="_FJ0eizZe0EGMl9TzmrN-11" value="# String: numero&lt;br&gt;&lt;br&gt;# String: bairro&lt;br&gt;&lt;br&gt;# String: cep&lt;br&gt;&lt;br&gt;# String: observacao&lt;br&gt;&lt;br&gt;&lt;br&gt;&lt;br&gt;&lt;br&gt;&lt;div&gt;&lt;br&gt;&lt;/div&gt;" style="text;strokeColor=none;fillColor=none;align=left;verticalAlign=top;spacingLeft=4;spacingRight=4;overflow=hidden;rotatable=0;points=[[0,0.5],[1,0.5]];portConstraint=eastwest;whiteSpace=wrap;html=1;" parent="_FJ0eizZe0EGMl9TzmrN-8" vertex="1">
          <mxGeometry y="78" width="140" height="122" as="geometry" />
        </mxCell>
        <mxCell id="_FJ0eizZe0EGMl9TzmrN-12" value="TipoLogradouto" style="swimlane;fontStyle=1;align=center;verticalAlign=top;childLayout=stackLayout;horizontal=1;startSize=26;horizontalStack=0;resizeParent=1;resizeParentMax=0;resizeLast=0;collapsible=1;marginBottom=0;whiteSpace=wrap;html=1;" parent="WIyWlLk6GJQsqaUBKTNV-1" vertex="1">
          <mxGeometry x="26" y="532" width="160" height="60" as="geometry" />
        </mxCell>
        <mxCell id="_FJ0eizZe0EGMl9TzmrN-13" value="- String tipoLogradouro" style="text;strokeColor=none;fillColor=none;align=left;verticalAlign=top;spacingLeft=4;spacingRight=4;overflow=hidden;rotatable=0;points=[[0,0.5],[1,0.5]];portConstraint=eastwest;whiteSpace=wrap;html=1;" parent="_FJ0eizZe0EGMl9TzmrN-12" vertex="1">
          <mxGeometry y="26" width="160" height="26" as="geometry" />
        </mxCell>
        <mxCell id="_FJ0eizZe0EGMl9TzmrN-14" value="" style="line;strokeWidth=1;fillColor=none;align=left;verticalAlign=middle;spacingTop=-1;spacingLeft=3;spacingRight=3;rotatable=0;labelPosition=right;points=[];portConstraint=eastwest;strokeColor=inherit;" parent="_FJ0eizZe0EGMl9TzmrN-12" vertex="1">
          <mxGeometry y="52" width="160" height="8" as="geometry" />
        </mxCell>
        <mxCell id="_FJ0eizZe0EGMl9TzmrN-16" value="TipoResidencia" style="swimlane;fontStyle=1;align=center;verticalAlign=top;childLayout=stackLayout;horizontal=1;startSize=26;horizontalStack=0;resizeParent=1;resizeParentMax=0;resizeLast=0;collapsible=1;marginBottom=0;whiteSpace=wrap;html=1;" parent="WIyWlLk6GJQsqaUBKTNV-1" vertex="1">
          <mxGeometry x="26" y="622" width="160" height="60" as="geometry" />
        </mxCell>
        <mxCell id="_FJ0eizZe0EGMl9TzmrN-17" value="- String: tipoLogradouro" style="text;strokeColor=none;fillColor=none;align=left;verticalAlign=top;spacingLeft=4;spacingRight=4;overflow=hidden;rotatable=0;points=[[0,0.5],[1,0.5]];portConstraint=eastwest;whiteSpace=wrap;html=1;" parent="_FJ0eizZe0EGMl9TzmrN-16" vertex="1">
          <mxGeometry y="26" width="160" height="26" as="geometry" />
        </mxCell>
        <mxCell id="_FJ0eizZe0EGMl9TzmrN-18" value="" style="line;strokeWidth=1;fillColor=none;align=left;verticalAlign=middle;spacingTop=-1;spacingLeft=3;spacingRight=3;rotatable=0;labelPosition=right;points=[];portConstraint=eastwest;strokeColor=inherit;" parent="_FJ0eizZe0EGMl9TzmrN-16" vertex="1">
          <mxGeometry y="52" width="160" height="8" as="geometry" />
        </mxCell>
        <mxCell id="_FJ0eizZe0EGMl9TzmrN-19" value="Cidade" style="swimlane;fontStyle=1;align=center;verticalAlign=top;childLayout=stackLayout;horizontal=1;startSize=26;horizontalStack=0;resizeParent=1;resizeParentMax=0;resizeLast=0;collapsible=1;marginBottom=0;whiteSpace=wrap;html=1;" parent="WIyWlLk6GJQsqaUBKTNV-1" vertex="1">
          <mxGeometry x="26" y="722" width="160" height="60" as="geometry" />
        </mxCell>
        <mxCell id="_FJ0eizZe0EGMl9TzmrN-20" value="- String: cidade" style="text;strokeColor=none;fillColor=none;align=left;verticalAlign=top;spacingLeft=4;spacingRight=4;overflow=hidden;rotatable=0;points=[[0,0.5],[1,0.5]];portConstraint=eastwest;whiteSpace=wrap;html=1;" parent="_FJ0eizZe0EGMl9TzmrN-19" vertex="1">
          <mxGeometry y="26" width="160" height="26" as="geometry" />
        </mxCell>
        <mxCell id="_FJ0eizZe0EGMl9TzmrN-21" value="" style="line;strokeWidth=1;fillColor=none;align=left;verticalAlign=middle;spacingTop=-1;spacingLeft=3;spacingRight=3;rotatable=0;labelPosition=right;points=[];portConstraint=eastwest;strokeColor=inherit;" parent="_FJ0eizZe0EGMl9TzmrN-19" vertex="1">
          <mxGeometry y="52" width="160" height="8" as="geometry" />
        </mxCell>
        <mxCell id="_FJ0eizZe0EGMl9TzmrN-22" value="" style="endArrow=none;html=1;rounded=0;entryX=-0.012;entryY=0.231;entryDx=0;entryDy=0;entryPerimeter=0;exitX=1;exitY=0.5;exitDx=0;exitDy=0;" parent="WIyWlLk6GJQsqaUBKTNV-1" source="_FJ0eizZe0EGMl9TzmrN-9" target="_FJ0eizZe0EGMl9TzmrN-13" edge="1">
          <mxGeometry width="50" height="50" relative="1" as="geometry">
            <mxPoint x="-34" y="632" as="sourcePoint" />
            <mxPoint x="56" y="632" as="targetPoint" />
          </mxGeometry>
        </mxCell>
        <mxCell id="_FJ0eizZe0EGMl9TzmrN-23" value="" style="endArrow=none;html=1;rounded=0;exitX=1;exitY=0.307;exitDx=0;exitDy=0;exitPerimeter=0;entryX=0;entryY=0.154;entryDx=0;entryDy=0;entryPerimeter=0;" parent="WIyWlLk6GJQsqaUBKTNV-1" source="_FJ0eizZe0EGMl9TzmrN-11" target="_FJ0eizZe0EGMl9TzmrN-17" edge="1">
          <mxGeometry width="50" height="50" relative="1" as="geometry">
            <mxPoint x="-4" y="752" as="sourcePoint" />
            <mxPoint x="46" y="702" as="targetPoint" />
          </mxGeometry>
        </mxCell>
        <mxCell id="_FJ0eizZe0EGMl9TzmrN-24" value="" style="endArrow=none;html=1;rounded=0;exitX=1.011;exitY=0.827;exitDx=0;exitDy=0;exitPerimeter=0;entryX=0;entryY=0.333;entryDx=0;entryDy=0;entryPerimeter=0;" parent="WIyWlLk6GJQsqaUBKTNV-1" source="_FJ0eizZe0EGMl9TzmrN-11" target="_FJ0eizZe0EGMl9TzmrN-19" edge="1">
          <mxGeometry width="50" height="50" relative="1" as="geometry">
            <mxPoint x="-4" y="752" as="sourcePoint" />
            <mxPoint x="46" y="702" as="targetPoint" />
          </mxGeometry>
        </mxCell>
        <mxCell id="_FJ0eizZe0EGMl9TzmrN-25" value="Cobranca" style="swimlane;fontStyle=0;childLayout=stackLayout;horizontal=1;startSize=20;horizontalStack=0;resizeParent=1;resizeParentMax=0;resizeLast=0;collapsible=1;marginBottom=0;whiteSpace=wrap;html=1;" parent="WIyWlLk6GJQsqaUBKTNV-1" vertex="1">
          <mxGeometry x="-255" y="907" width="140" height="40" as="geometry" />
        </mxCell>
        <mxCell id="_FJ0eizZe0EGMl9TzmrN-27" value="- boolean: ativo&lt;div&gt;&lt;br&gt;&lt;div&gt;&lt;br&gt;&lt;/div&gt;&lt;/div&gt;" style="text;strokeColor=none;fillColor=none;align=left;verticalAlign=middle;spacingLeft=4;spacingRight=4;overflow=hidden;points=[[0,0.5],[1,0.5]];portConstraint=eastwest;rotatable=0;whiteSpace=wrap;html=1;" parent="_FJ0eizZe0EGMl9TzmrN-25" vertex="1">
          <mxGeometry y="20" width="140" height="20" as="geometry" />
        </mxCell>
        <mxCell id="_FJ0eizZe0EGMl9TzmrN-29" value="Entrega" style="swimlane;fontStyle=0;childLayout=stackLayout;horizontal=1;startSize=20;horizontalStack=0;resizeParent=1;resizeParentMax=0;resizeLast=0;collapsible=1;marginBottom=0;whiteSpace=wrap;html=1;" parent="WIyWlLk6GJQsqaUBKTNV-1" vertex="1">
          <mxGeometry x="-14" y="827" width="140" height="70" as="geometry" />
        </mxCell>
        <mxCell id="_FJ0eizZe0EGMl9TzmrN-30" value="- boolean: ativo&lt;br&gt;&lt;br&gt;- String: fraseEntrega&lt;div&gt;&lt;br&gt;&lt;/div&gt;&lt;div&gt;&lt;br&gt;&lt;/div&gt;" style="text;strokeColor=none;fillColor=none;align=left;verticalAlign=middle;spacingLeft=4;spacingRight=4;overflow=hidden;points=[[0,0.5],[1,0.5]];portConstraint=eastwest;rotatable=0;whiteSpace=wrap;html=1;" parent="_FJ0eizZe0EGMl9TzmrN-29" vertex="1">
          <mxGeometry y="20" width="140" height="50" as="geometry" />
        </mxCell>
        <mxCell id="_FJ0eizZe0EGMl9TzmrN-31" value="Extends" style="endArrow=block;endSize=16;endFill=0;html=1;rounded=0;entryX=0.663;entryY=1.025;entryDx=0;entryDy=0;entryPerimeter=0;" parent="WIyWlLk6GJQsqaUBKTNV-1" target="_FJ0eizZe0EGMl9TzmrN-11" edge="1">
          <mxGeometry width="160" relative="1" as="geometry">
            <mxPoint x="-20" y="850" as="sourcePoint" />
            <mxPoint x="106" y="822" as="targetPoint" />
          </mxGeometry>
        </mxCell>
        <mxCell id="_FJ0eizZe0EGMl9TzmrN-32" value="Extends" style="endArrow=block;endSize=16;endFill=0;html=1;rounded=0;exitX=0.621;exitY=-0.06;exitDx=0;exitDy=0;exitPerimeter=0;entryX=0.258;entryY=1.033;entryDx=0;entryDy=0;entryPerimeter=0;" parent="WIyWlLk6GJQsqaUBKTNV-1" source="_FJ0eizZe0EGMl9TzmrN-25" target="_FJ0eizZe0EGMl9TzmrN-11" edge="1">
          <mxGeometry width="160" relative="1" as="geometry">
            <mxPoint x="3" y="859" as="sourcePoint" />
            <mxPoint x="-88" y="815" as="targetPoint" />
          </mxGeometry>
        </mxCell>
        <mxCell id="_FJ0eizZe0EGMl9TzmrN-33" value="Cliente" style="swimlane;fontStyle=0;childLayout=stackLayout;horizontal=1;startSize=26;fillColor=none;horizontalStack=0;resizeParent=1;resizeParentMax=0;resizeLast=0;collapsible=1;marginBottom=0;whiteSpace=wrap;html=1;" parent="WIyWlLk6GJQsqaUBKTNV-1" vertex="1">
          <mxGeometry x="236" y="852" width="150" height="230" as="geometry" />
        </mxCell>
        <mxCell id="_FJ0eizZe0EGMl9TzmrN-34" value="- Long: id" style="text;strokeColor=none;fillColor=none;align=left;verticalAlign=top;spacingLeft=4;spacingRight=4;overflow=hidden;rotatable=0;points=[[0,0.5],[1,0.5]];portConstraint=eastwest;whiteSpace=wrap;html=1;" parent="_FJ0eizZe0EGMl9TzmrN-33" vertex="1">
          <mxGeometry y="26" width="150" height="26" as="geometry" />
        </mxCell>
        <mxCell id="_FJ0eizZe0EGMl9TzmrN-35" value="-&amp;nbsp; String: nome" style="text;strokeColor=none;fillColor=none;align=left;verticalAlign=top;spacingLeft=4;spacingRight=4;overflow=hidden;rotatable=0;points=[[0,0.5],[1,0.5]];portConstraint=eastwest;whiteSpace=wrap;html=1;" parent="_FJ0eizZe0EGMl9TzmrN-33" vertex="1">
          <mxGeometry y="52" width="150" height="26" as="geometry" />
        </mxCell>
        <mxCell id="_FJ0eizZe0EGMl9TzmrN-36" value="- String: cpf&lt;br&gt;&lt;br&gt;- LocalDate: nascimento&lt;div&gt;&lt;br&gt;&lt;/div&gt;&lt;div&gt;- String: senha&lt;/div&gt;&lt;div&gt;&lt;br&gt;&lt;/div&gt;&lt;div&gt;- String: confirmarSenha&lt;/div&gt;&lt;div&gt;&lt;br&gt;&lt;/div&gt;&lt;div&gt;- boolean: ativo&lt;/div&gt;" style="text;strokeColor=none;fillColor=none;align=left;verticalAlign=top;spacingLeft=4;spacingRight=4;overflow=hidden;rotatable=0;points=[[0,0.5],[1,0.5]];portConstraint=eastwest;whiteSpace=wrap;html=1;" parent="_FJ0eizZe0EGMl9TzmrN-33" vertex="1">
          <mxGeometry y="78" width="150" height="152" as="geometry" />
        </mxCell>
        <mxCell id="_FJ0eizZe0EGMl9TzmrN-37" value="Genero" style="swimlane;fontStyle=0;childLayout=stackLayout;horizontal=1;startSize=26;fillColor=none;horizontalStack=0;resizeParent=1;resizeParentMax=0;resizeLast=0;collapsible=1;marginBottom=0;whiteSpace=wrap;html=1;" parent="WIyWlLk6GJQsqaUBKTNV-1" vertex="1">
          <mxGeometry x="369" y="732" width="90" height="80" as="geometry" />
        </mxCell>
        <mxCell id="_FJ0eizZe0EGMl9TzmrN-38" value="MASCULINO&lt;br&gt;&lt;br&gt;FEMININO" style="text;strokeColor=none;fillColor=none;align=left;verticalAlign=top;spacingLeft=4;spacingRight=4;overflow=hidden;rotatable=0;points=[[0,0.5],[1,0.5]];portConstraint=eastwest;whiteSpace=wrap;html=1;" parent="_FJ0eizZe0EGMl9TzmrN-37" vertex="1">
          <mxGeometry y="26" width="90" height="54" as="geometry" />
        </mxCell>
        <mxCell id="_FJ0eizZe0EGMl9TzmrN-41" value="Telefone" style="swimlane;fontStyle=0;childLayout=stackLayout;horizontal=1;startSize=26;fillColor=none;horizontalStack=0;resizeParent=1;resizeParentMax=0;resizeLast=0;collapsible=1;marginBottom=0;whiteSpace=wrap;html=1;" parent="WIyWlLk6GJQsqaUBKTNV-1" vertex="1">
          <mxGeometry x="-24" y="1032" width="130" height="80" as="geometry" />
        </mxCell>
        <mxCell id="_FJ0eizZe0EGMl9TzmrN-42" value="- String: ddd;&lt;br&gt;&lt;br&gt;- String: telefone&lt;div&gt;&lt;br&gt;&lt;/div&gt;" style="text;strokeColor=none;fillColor=none;align=left;verticalAlign=top;spacingLeft=4;spacingRight=4;overflow=hidden;rotatable=0;points=[[0,0.5],[1,0.5]];portConstraint=eastwest;whiteSpace=wrap;html=1;" parent="_FJ0eizZe0EGMl9TzmrN-41" vertex="1">
          <mxGeometry y="26" width="130" height="54" as="geometry" />
        </mxCell>
        <mxCell id="_FJ0eizZe0EGMl9TzmrN-43" value="TipoTelefone" style="swimlane;fontStyle=0;childLayout=stackLayout;horizontal=1;startSize=26;fillColor=none;horizontalStack=0;resizeParent=1;resizeParentMax=0;resizeLast=0;collapsible=1;marginBottom=0;whiteSpace=wrap;html=1;" parent="WIyWlLk6GJQsqaUBKTNV-1" vertex="1">
          <mxGeometry x="-260" y="1050" width="150" height="100" as="geometry" />
        </mxCell>
        <mxCell id="_FJ0eizZe0EGMl9TzmrN-44" value="COMERCIAL&lt;br&gt;RESIDENCIAL&lt;br&gt;MOVEL&lt;br&gt;FIXO" style="text;strokeColor=none;fillColor=none;align=left;verticalAlign=top;spacingLeft=4;spacingRight=4;overflow=hidden;rotatable=0;points=[[0,0.5],[1,0.5]];portConstraint=eastwest;whiteSpace=wrap;html=1;" parent="_FJ0eizZe0EGMl9TzmrN-43" vertex="1">
          <mxGeometry y="26" width="150" height="74" as="geometry" />
        </mxCell>
        <mxCell id="_FJ0eizZe0EGMl9TzmrN-45" value="" style="endArrow=none;html=1;rounded=0;exitX=0.996;exitY=0.139;exitDx=0;exitDy=0;exitPerimeter=0;entryX=0;entryY=0.5;entryDx=0;entryDy=0;" parent="WIyWlLk6GJQsqaUBKTNV-1" source="_FJ0eizZe0EGMl9TzmrN-44" target="_FJ0eizZe0EGMl9TzmrN-42" edge="1">
          <mxGeometry width="50" height="50" relative="1" as="geometry">
            <mxPoint x="46" y="1122" as="sourcePoint" />
            <mxPoint x="46" y="1092" as="targetPoint" />
          </mxGeometry>
        </mxCell>
        <mxCell id="_FJ0eizZe0EGMl9TzmrN-46" value="" style="endArrow=none;html=1;rounded=0;entryX=0;entryY=0.737;entryDx=0;entryDy=0;entryPerimeter=0;exitX=1;exitY=0.25;exitDx=0;exitDy=0;exitPerimeter=0;" parent="WIyWlLk6GJQsqaUBKTNV-1" source="_FJ0eizZe0EGMl9TzmrN-41" target="_FJ0eizZe0EGMl9TzmrN-36" edge="1">
          <mxGeometry width="50" height="50" relative="1" as="geometry">
            <mxPoint x="-4" y="1062" as="sourcePoint" />
            <mxPoint x="46" y="1012" as="targetPoint" />
          </mxGeometry>
        </mxCell>
        <mxCell id="_FJ0eizZe0EGMl9TzmrN-47" value="Cartao" style="swimlane;fontStyle=0;childLayout=stackLayout;horizontal=1;startSize=26;fillColor=none;horizontalStack=0;resizeParent=1;resizeParentMax=0;resizeLast=0;collapsible=1;marginBottom=0;whiteSpace=wrap;html=1;" parent="WIyWlLk6GJQsqaUBKTNV-1" vertex="1">
          <mxGeometry x="160" y="1250" width="169" height="170" as="geometry" />
        </mxCell>
        <mxCell id="_FJ0eizZe0EGMl9TzmrN-48" value="- Long: id&lt;br&gt;&lt;br&gt;- boolean: ativo" style="text;strokeColor=none;fillColor=none;align=left;verticalAlign=top;spacingLeft=4;spacingRight=4;overflow=hidden;rotatable=0;points=[[0,0.5],[1,0.5]];portConstraint=eastwest;whiteSpace=wrap;html=1;" parent="_FJ0eizZe0EGMl9TzmrN-47" vertex="1">
          <mxGeometry y="26" width="169" height="26" as="geometry" />
        </mxCell>
        <mxCell id="_FJ0eizZe0EGMl9TzmrN-49" value="- boolean: principal = false&lt;br&gt;&lt;br&gt;- String nomeImpresso&lt;br&gt;&lt;br&gt;- String codigo&lt;br&gt;&lt;br&gt;- String numeroCartao&lt;br&gt;&lt;div&gt;&lt;br/&gt;&lt;/div&gt;" style="text;strokeColor=none;fillColor=none;align=left;verticalAlign=top;spacingLeft=4;spacingRight=4;overflow=hidden;rotatable=0;points=[[0,0.5],[1,0.5]];portConstraint=eastwest;whiteSpace=wrap;html=1;" parent="_FJ0eizZe0EGMl9TzmrN-47" vertex="1">
          <mxGeometry y="52" width="169" height="118" as="geometry" />
        </mxCell>
        <mxCell id="_FJ0eizZe0EGMl9TzmrN-56" value="" style="endArrow=none;html=1;rounded=0;entryX=0.133;entryY=1.02;entryDx=0;entryDy=0;entryPerimeter=0;exitX=0.595;exitY=-0.029;exitDx=0;exitDy=0;exitPerimeter=0;" parent="WIyWlLk6GJQsqaUBKTNV-1" source="_FJ0eizZe0EGMl9TzmrN-47" target="_FJ0eizZe0EGMl9TzmrN-36" edge="1">
          <mxGeometry width="50" height="50" relative="1" as="geometry">
            <mxPoint x="317" y="1132" as="sourcePoint" />
            <mxPoint x="46" y="1112" as="targetPoint" />
          </mxGeometry>
        </mxCell>
        <mxCell id="_FJ0eizZe0EGMl9TzmrN-57" value="Bandeira" style="swimlane;fontStyle=0;childLayout=stackLayout;horizontal=1;startSize=26;fillColor=none;horizontalStack=0;resizeParent=1;resizeParentMax=0;resizeLast=0;collapsible=1;marginBottom=0;whiteSpace=wrap;html=1;" parent="WIyWlLk6GJQsqaUBKTNV-1" vertex="1">
          <mxGeometry x="-24" y="1280" width="100" height="110" as="geometry" />
        </mxCell>
        <mxCell id="_FJ0eizZe0EGMl9TzmrN-58" value="MASTERCARD&lt;br&gt;&lt;br&gt;VISA&lt;br&gt;&lt;br&gt;ELO" style="text;strokeColor=none;fillColor=none;align=left;verticalAlign=top;spacingLeft=4;spacingRight=4;overflow=hidden;rotatable=0;points=[[0,0.5],[1,0.5]];portConstraint=eastwest;whiteSpace=wrap;html=1;" parent="_FJ0eizZe0EGMl9TzmrN-57" vertex="1">
          <mxGeometry y="26" width="100" height="84" as="geometry" />
        </mxCell>
        <mxCell id="_FJ0eizZe0EGMl9TzmrN-60" value="" style="endArrow=none;html=1;rounded=0;exitX=-0.006;exitY=0.331;exitDx=0;exitDy=0;entryX=1;entryY=0.405;entryDx=0;entryDy=0;entryPerimeter=0;exitPerimeter=0;" parent="WIyWlLk6GJQsqaUBKTNV-1" source="_FJ0eizZe0EGMl9TzmrN-49" target="_FJ0eizZe0EGMl9TzmrN-58" edge="1">
          <mxGeometry width="50" height="50" relative="1" as="geometry">
            <mxPoint x="162" y="1156" as="sourcePoint" />
            <mxPoint x="242" y="1176" as="targetPoint" />
          </mxGeometry>
        </mxCell>
        <mxCell id="_FJ0eizZe0EGMl9TzmrN-61" value="Estado" style="swimlane;fontStyle=1;align=center;verticalAlign=top;childLayout=stackLayout;horizontal=1;startSize=26;horizontalStack=0;resizeParent=1;resizeParentMax=0;resizeLast=0;collapsible=1;marginBottom=0;whiteSpace=wrap;html=1;" parent="WIyWlLk6GJQsqaUBKTNV-1" vertex="1">
          <mxGeometry x="236" y="692" width="100" height="60" as="geometry" />
        </mxCell>
        <mxCell id="_FJ0eizZe0EGMl9TzmrN-62" value="- String: estado" style="text;strokeColor=none;fillColor=none;align=left;verticalAlign=top;spacingLeft=4;spacingRight=4;overflow=hidden;rotatable=0;points=[[0,0.5],[1,0.5]];portConstraint=eastwest;whiteSpace=wrap;html=1;" parent="_FJ0eizZe0EGMl9TzmrN-61" vertex="1">
          <mxGeometry y="26" width="100" height="26" as="geometry" />
        </mxCell>
        <mxCell id="_FJ0eizZe0EGMl9TzmrN-63" value="" style="line;strokeWidth=1;fillColor=none;align=left;verticalAlign=middle;spacingTop=-1;spacingLeft=3;spacingRight=3;rotatable=0;labelPosition=right;points=[];portConstraint=eastwest;strokeColor=inherit;" parent="_FJ0eizZe0EGMl9TzmrN-61" vertex="1">
          <mxGeometry y="52" width="100" height="8" as="geometry" />
        </mxCell>
        <mxCell id="_FJ0eizZe0EGMl9TzmrN-64" value="Pais" style="swimlane;fontStyle=1;align=center;verticalAlign=top;childLayout=stackLayout;horizontal=1;startSize=26;horizontalStack=0;resizeParent=1;resizeParentMax=0;resizeLast=0;collapsible=1;marginBottom=0;whiteSpace=wrap;html=1;" parent="WIyWlLk6GJQsqaUBKTNV-1" vertex="1">
          <mxGeometry x="236" y="592" width="100" height="60" as="geometry" />
        </mxCell>
        <mxCell id="_FJ0eizZe0EGMl9TzmrN-65" value="- String: pais" style="text;strokeColor=none;fillColor=none;align=left;verticalAlign=top;spacingLeft=4;spacingRight=4;overflow=hidden;rotatable=0;points=[[0,0.5],[1,0.5]];portConstraint=eastwest;whiteSpace=wrap;html=1;" parent="_FJ0eizZe0EGMl9TzmrN-64" vertex="1">
          <mxGeometry y="26" width="100" height="26" as="geometry" />
        </mxCell>
        <mxCell id="_FJ0eizZe0EGMl9TzmrN-66" value="" style="line;strokeWidth=1;fillColor=none;align=left;verticalAlign=middle;spacingTop=-1;spacingLeft=3;spacingRight=3;rotatable=0;labelPosition=right;points=[];portConstraint=eastwest;strokeColor=inherit;" parent="_FJ0eizZe0EGMl9TzmrN-64" vertex="1">
          <mxGeometry y="52" width="100" height="8" as="geometry" />
        </mxCell>
        <mxCell id="_FJ0eizZe0EGMl9TzmrN-67" value="" style="endArrow=none;html=1;rounded=0;" parent="WIyWlLk6GJQsqaUBKTNV-1" edge="1">
          <mxGeometry width="50" height="50" relative="1" as="geometry">
            <mxPoint x="186" y="750" as="sourcePoint" />
            <mxPoint x="236" y="732" as="targetPoint" />
          </mxGeometry>
        </mxCell>
        <mxCell id="_FJ0eizZe0EGMl9TzmrN-68" value="" style="endArrow=none;html=1;rounded=0;exitX=0.5;exitY=0;exitDx=0;exitDy=0;" parent="WIyWlLk6GJQsqaUBKTNV-1" source="_FJ0eizZe0EGMl9TzmrN-61" edge="1">
          <mxGeometry width="50" height="50" relative="1" as="geometry">
            <mxPoint x="256" y="762" as="sourcePoint" />
            <mxPoint x="288" y="653" as="targetPoint" />
          </mxGeometry>
        </mxCell>
        <mxCell id="_FJ0eizZe0EGMl9TzmrN-69" value="" style="endArrow=none;html=1;rounded=0;exitX=0.613;exitY=-0.009;exitDx=0;exitDy=0;entryX=0;entryY=0.5;entryDx=0;entryDy=0;exitPerimeter=0;" parent="WIyWlLk6GJQsqaUBKTNV-1" source="_FJ0eizZe0EGMl9TzmrN-33" target="_FJ0eizZe0EGMl9TzmrN-38" edge="1">
          <mxGeometry width="50" height="50" relative="1" as="geometry">
            <mxPoint x="256" y="962" as="sourcePoint" />
            <mxPoint x="466" y="882" as="targetPoint" />
          </mxGeometry>
        </mxCell>
        <mxCell id="_FJ0eizZe0EGMl9TzmrN-71" value="" style="endArrow=none;html=1;rounded=0;exitX=0.025;exitY=0.767;exitDx=0;exitDy=0;exitPerimeter=0;" parent="WIyWlLk6GJQsqaUBKTNV-1" source="_FJ0eizZe0EGMl9TzmrN-74" edge="1">
          <mxGeometry width="50" height="50" relative="1" as="geometry">
            <mxPoint x="176" y="862" as="sourcePoint" />
            <mxPoint x="236" y="892" as="targetPoint" />
          </mxGeometry>
        </mxCell>
        <mxCell id="_FJ0eizZe0EGMl9TzmrN-72" value="" style="endArrow=none;html=1;rounded=0;exitX=1;exitY=0.5;exitDx=0;exitDy=0;entryX=-0.007;entryY=0.27;entryDx=0;entryDy=0;entryPerimeter=0;" parent="WIyWlLk6GJQsqaUBKTNV-1" source="_FJ0eizZe0EGMl9TzmrN-27" target="_FJ0eizZe0EGMl9TzmrN-36" edge="1">
          <mxGeometry width="50" height="50" relative="1" as="geometry">
            <mxPoint x="176" y="862" as="sourcePoint" />
            <mxPoint x="226" y="812" as="targetPoint" />
          </mxGeometry>
        </mxCell>
        <mxCell id="_FJ0eizZe0EGMl9TzmrN-73" value="1..*" style="text;html=1;align=center;verticalAlign=middle;resizable=0;points=[];autosize=1;strokeColor=none;fillColor=none;" parent="WIyWlLk6GJQsqaUBKTNV-1" vertex="1">
          <mxGeometry x="-120" y="912" width="40" height="30" as="geometry" />
        </mxCell>
        <mxCell id="_FJ0eizZe0EGMl9TzmrN-74" value="1..*" style="text;html=1;align=center;verticalAlign=middle;resizable=0;points=[];autosize=1;strokeColor=none;fillColor=none;" parent="WIyWlLk6GJQsqaUBKTNV-1" vertex="1">
          <mxGeometry x="126" y="832" width="40" height="30" as="geometry" />
        </mxCell>
        <mxCell id="_FJ0eizZe0EGMl9TzmrN-75" value="1" style="text;html=1;align=center;verticalAlign=middle;resizable=0;points=[];autosize=1;strokeColor=none;fillColor=none;" parent="WIyWlLk6GJQsqaUBKTNV-1" vertex="1">
          <mxGeometry x="106" y="1012" width="30" height="30" as="geometry" />
        </mxCell>
        <mxCell id="_FJ0eizZe0EGMl9TzmrN-76" value="1" style="text;html=1;align=center;verticalAlign=middle;resizable=0;points=[];autosize=1;strokeColor=none;fillColor=none;" parent="WIyWlLk6GJQsqaUBKTNV-1" vertex="1">
          <mxGeometry x="330" y="778" width="30" height="30" as="geometry" />
        </mxCell>
        <mxCell id="_FJ0eizZe0EGMl9TzmrN-77" value="0...*" style="text;html=1;align=center;verticalAlign=middle;resizable=0;points=[];autosize=1;strokeColor=none;fillColor=none;" parent="WIyWlLk6GJQsqaUBKTNV-1" vertex="1">
          <mxGeometry x="260" y="1220" width="40" height="30" as="geometry" />
        </mxCell>
        <mxCell id="_FJ0eizZe0EGMl9TzmrN-78" value="1" style="text;html=1;align=center;verticalAlign=middle;resizable=0;points=[];autosize=1;strokeColor=none;fillColor=none;" parent="WIyWlLk6GJQsqaUBKTNV-1" vertex="1">
          <mxGeometry x="76" y="1310" width="30" height="30" as="geometry" />
        </mxCell>
        <mxCell id="_FJ0eizZe0EGMl9TzmrN-79" value="1" style="text;html=1;align=center;verticalAlign=middle;resizable=0;points=[];autosize=1;strokeColor=none;fillColor=none;" parent="WIyWlLk6GJQsqaUBKTNV-1" vertex="1">
          <mxGeometry x="-110" y="1086" width="30" height="30" as="geometry" />
        </mxCell>
        <mxCell id="_FJ0eizZe0EGMl9TzmrN-80" value="1" style="text;html=1;align=center;verticalAlign=middle;resizable=0;points=[];autosize=1;strokeColor=none;fillColor=none;" parent="WIyWlLk6GJQsqaUBKTNV-1" vertex="1">
          <mxGeometry x="-4" y="632" width="30" height="30" as="geometry" />
        </mxCell>
        <mxCell id="_FJ0eizZe0EGMl9TzmrN-81" value="1" style="text;html=1;align=center;verticalAlign=middle;resizable=0;points=[];autosize=1;strokeColor=none;fillColor=none;" parent="WIyWlLk6GJQsqaUBKTNV-1" vertex="1">
          <mxGeometry x="-4" y="532" width="30" height="30" as="geometry" />
        </mxCell>
        <mxCell id="_FJ0eizZe0EGMl9TzmrN-82" value="1" style="text;html=1;align=center;verticalAlign=middle;resizable=0;points=[];autosize=1;strokeColor=none;fillColor=none;" parent="WIyWlLk6GJQsqaUBKTNV-1" vertex="1">
          <mxGeometry x="206" y="702" width="30" height="30" as="geometry" />
        </mxCell>
        <mxCell id="_FJ0eizZe0EGMl9TzmrN-83" value="1" style="text;html=1;align=center;verticalAlign=middle;resizable=0;points=[];autosize=1;strokeColor=none;fillColor=none;" parent="WIyWlLk6GJQsqaUBKTNV-1" vertex="1">
          <mxGeometry x="286" y="652" width="30" height="30" as="geometry" />
        </mxCell>
        <mxCell id="_FJ0eizZe0EGMl9TzmrN-85" value="1" style="text;html=1;align=center;verticalAlign=middle;resizable=0;points=[];autosize=1;strokeColor=none;fillColor=none;" parent="WIyWlLk6GJQsqaUBKTNV-1" vertex="1">
          <mxGeometry x="-14" y="722" width="30" height="30" as="geometry" />
        </mxCell>
        <mxCell id="_FJ0eizZe0EGMl9TzmrN-86" value="Livro" style="swimlane;fontStyle=0;childLayout=stackLayout;horizontal=1;startSize=26;fillColor=none;horizontalStack=0;resizeParent=1;resizeParentMax=0;resizeLast=0;collapsible=1;marginBottom=0;whiteSpace=wrap;html=1;" parent="WIyWlLk6GJQsqaUBKTNV-1" vertex="1">
          <mxGeometry x="806" y="507" width="116" height="230" as="geometry" />
        </mxCell>
        <mxCell id="_FJ0eizZe0EGMl9TzmrN-87" value="- Long: id;" style="text;strokeColor=none;fillColor=none;align=left;verticalAlign=top;spacingLeft=4;spacingRight=4;overflow=hidden;rotatable=0;points=[[0,0.5],[1,0.5]];portConstraint=eastwest;whiteSpace=wrap;html=1;" parent="_FJ0eizZe0EGMl9TzmrN-86" vertex="1">
          <mxGeometry y="26" width="116" height="26" as="geometry" />
        </mxCell>
        <mxCell id="_FJ0eizZe0EGMl9TzmrN-88" value="- LocalDate: ano" style="text;strokeColor=none;fillColor=none;align=left;verticalAlign=top;spacingLeft=4;spacingRight=4;overflow=hidden;rotatable=0;points=[[0,0.5],[1,0.5]];portConstraint=eastwest;whiteSpace=wrap;html=1;" parent="_FJ0eizZe0EGMl9TzmrN-86" vertex="1">
          <mxGeometry y="52" width="116" height="26" as="geometry" />
        </mxCell>
        <mxCell id="_FJ0eizZe0EGMl9TzmrN-89" value="- String: titulo&lt;br&gt;&lt;br&gt;-string: isbn&lt;br&gt;&lt;br&gt;- int: paginas&lt;br&gt;&lt;br&gt;- String sinopse&lt;br&gt;&lt;br&gt;- String: codigoBarra&lt;br&gt;&lt;br&gt;&lt;br&gt;&lt;br&gt;&lt;div&gt;&lt;br&gt;&lt;/div&gt;" style="text;strokeColor=none;fillColor=none;align=left;verticalAlign=top;spacingLeft=4;spacingRight=4;overflow=hidden;rotatable=0;points=[[0,0.5],[1,0.5]];portConstraint=eastwest;whiteSpace=wrap;html=1;" parent="_FJ0eizZe0EGMl9TzmrN-86" vertex="1">
          <mxGeometry y="78" width="116" height="152" as="geometry" />
        </mxCell>
        <mxCell id="_FJ0eizZe0EGMl9TzmrN-90" value="Autor" style="swimlane;fontStyle=0;childLayout=stackLayout;horizontal=1;startSize=26;fillColor=none;horizontalStack=0;resizeParent=1;resizeParentMax=0;resizeLast=0;collapsible=1;marginBottom=0;whiteSpace=wrap;html=1;" parent="WIyWlLk6GJQsqaUBKTNV-1" vertex="1">
          <mxGeometry x="870" y="819" width="140" height="52" as="geometry" />
        </mxCell>
        <mxCell id="_FJ0eizZe0EGMl9TzmrN-91" value="- String: nome" style="text;strokeColor=none;fillColor=none;align=left;verticalAlign=top;spacingLeft=4;spacingRight=4;overflow=hidden;rotatable=0;points=[[0,0.5],[1,0.5]];portConstraint=eastwest;whiteSpace=wrap;html=1;" parent="_FJ0eizZe0EGMl9TzmrN-90" vertex="1">
          <mxGeometry y="26" width="140" height="26" as="geometry" />
        </mxCell>
        <mxCell id="_FJ0eizZe0EGMl9TzmrN-94" value="Categoria" style="swimlane;fontStyle=0;childLayout=stackLayout;horizontal=1;startSize=26;fillColor=none;horizontalStack=0;resizeParent=1;resizeParentMax=0;resizeLast=0;collapsible=1;marginBottom=0;whiteSpace=wrap;html=1;" parent="WIyWlLk6GJQsqaUBKTNV-1" vertex="1">
          <mxGeometry x="1016" y="692" width="140" height="52" as="geometry" />
        </mxCell>
        <mxCell id="_FJ0eizZe0EGMl9TzmrN-95" value="- String: nome" style="text;strokeColor=none;fillColor=none;align=left;verticalAlign=top;spacingLeft=4;spacingRight=4;overflow=hidden;rotatable=0;points=[[0,0.5],[1,0.5]];portConstraint=eastwest;whiteSpace=wrap;html=1;" parent="_FJ0eizZe0EGMl9TzmrN-94" vertex="1">
          <mxGeometry y="26" width="140" height="26" as="geometry" />
        </mxCell>
        <mxCell id="_FJ0eizZe0EGMl9TzmrN-98" value="Editora" style="swimlane;fontStyle=0;childLayout=stackLayout;horizontal=1;startSize=26;fillColor=none;horizontalStack=0;resizeParent=1;resizeParentMax=0;resizeLast=0;collapsible=1;marginBottom=0;whiteSpace=wrap;html=1;" parent="WIyWlLk6GJQsqaUBKTNV-1" vertex="1">
          <mxGeometry x="661" y="470" width="100" height="52" as="geometry" />
        </mxCell>
        <mxCell id="_FJ0eizZe0EGMl9TzmrN-100" value="- String: nome" style="text;strokeColor=none;fillColor=none;align=left;verticalAlign=top;spacingLeft=4;spacingRight=4;overflow=hidden;rotatable=0;points=[[0,0.5],[1,0.5]];portConstraint=eastwest;whiteSpace=wrap;html=1;" parent="_FJ0eizZe0EGMl9TzmrN-98" vertex="1">
          <mxGeometry y="26" width="100" height="26" as="geometry" />
        </mxCell>
        <mxCell id="_FJ0eizZe0EGMl9TzmrN-102" value="Dimensoes" style="swimlane;fontStyle=0;childLayout=stackLayout;horizontal=1;startSize=26;fillColor=none;horizontalStack=0;resizeParent=1;resizeParentMax=0;resizeLast=0;collapsible=1;marginBottom=0;whiteSpace=wrap;html=1;" parent="WIyWlLk6GJQsqaUBKTNV-1" vertex="1">
          <mxGeometry x="1006" y="542" width="170" height="140" as="geometry" />
        </mxCell>
        <mxCell id="_FJ0eizZe0EGMl9TzmrN-103" value="- BigDecimal: altura" style="text;strokeColor=none;fillColor=none;align=left;verticalAlign=top;spacingLeft=4;spacingRight=4;overflow=hidden;rotatable=0;points=[[0,0.5],[1,0.5]];portConstraint=eastwest;whiteSpace=wrap;html=1;" parent="_FJ0eizZe0EGMl9TzmrN-102" vertex="1">
          <mxGeometry y="26" width="170" height="26" as="geometry" />
        </mxCell>
        <mxCell id="_FJ0eizZe0EGMl9TzmrN-104" value="- BigDecimal: largura" style="text;strokeColor=none;fillColor=none;align=left;verticalAlign=top;spacingLeft=4;spacingRight=4;overflow=hidden;rotatable=0;points=[[0,0.5],[1,0.5]];portConstraint=eastwest;whiteSpace=wrap;html=1;" parent="_FJ0eizZe0EGMl9TzmrN-102" vertex="1">
          <mxGeometry y="52" width="170" height="26" as="geometry" />
        </mxCell>
        <mxCell id="_FJ0eizZe0EGMl9TzmrN-105" value="- BigDecimal: peso&lt;br&gt;&lt;br&gt;- BigDecimal: profundidade" style="text;strokeColor=none;fillColor=none;align=left;verticalAlign=top;spacingLeft=4;spacingRight=4;overflow=hidden;rotatable=0;points=[[0,0.5],[1,0.5]];portConstraint=eastwest;whiteSpace=wrap;html=1;" parent="_FJ0eizZe0EGMl9TzmrN-102" vertex="1">
          <mxGeometry y="78" width="170" height="62" as="geometry" />
        </mxCell>
        <mxCell id="_FJ0eizZe0EGMl9TzmrN-106" value="Precificacao" style="swimlane;fontStyle=0;childLayout=stackLayout;horizontal=1;startSize=26;fillColor=none;horizontalStack=0;resizeParent=1;resizeParentMax=0;resizeLast=0;collapsible=1;marginBottom=0;whiteSpace=wrap;html=1;" parent="WIyWlLk6GJQsqaUBKTNV-1" vertex="1">
          <mxGeometry x="577" y="592" width="160" height="52" as="geometry" />
        </mxCell>
        <mxCell id="_FJ0eizZe0EGMl9TzmrN-109" value="- BigDecimal: precificacao" style="text;strokeColor=none;fillColor=none;align=left;verticalAlign=top;spacingLeft=4;spacingRight=4;overflow=hidden;rotatable=0;points=[[0,0.5],[1,0.5]];portConstraint=eastwest;whiteSpace=wrap;html=1;" parent="_FJ0eizZe0EGMl9TzmrN-106" vertex="1">
          <mxGeometry y="26" width="160" height="26" as="geometry" />
        </mxCell>
        <mxCell id="_FJ0eizZe0EGMl9TzmrN-110" value="Edicao" style="swimlane;fontStyle=0;childLayout=stackLayout;horizontal=1;startSize=26;fillColor=none;horizontalStack=0;resizeParent=1;resizeParentMax=0;resizeLast=0;collapsible=1;marginBottom=0;whiteSpace=wrap;html=1;" parent="WIyWlLk6GJQsqaUBKTNV-1" vertex="1">
          <mxGeometry x="585" y="676" width="140" height="52" as="geometry" />
        </mxCell>
        <mxCell id="_FJ0eizZe0EGMl9TzmrN-112" value="- String: numeroEdicao" style="text;strokeColor=none;fillColor=none;align=left;verticalAlign=top;spacingLeft=4;spacingRight=4;overflow=hidden;rotatable=0;points=[[0,0.5],[1,0.5]];portConstraint=eastwest;whiteSpace=wrap;html=1;" parent="_FJ0eizZe0EGMl9TzmrN-110" vertex="1">
          <mxGeometry y="26" width="140" height="26" as="geometry" />
        </mxCell>
        <mxCell id="_FJ0eizZe0EGMl9TzmrN-115" value="" style="endArrow=none;html=1;rounded=0;exitX=0.5;exitY=0;exitDx=0;exitDy=0;" parent="WIyWlLk6GJQsqaUBKTNV-1" source="_FJ0eizZe0EGMl9TzmrN-90" edge="1">
          <mxGeometry width="50" height="50" relative="1" as="geometry">
            <mxPoint x="706" y="772" as="sourcePoint" />
            <mxPoint x="870" y="740" as="targetPoint" />
          </mxGeometry>
        </mxCell>
        <mxCell id="_FJ0eizZe0EGMl9TzmrN-116" value="1..*" style="text;html=1;align=center;verticalAlign=middle;resizable=0;points=[];autosize=1;strokeColor=none;fillColor=none;" parent="WIyWlLk6GJQsqaUBKTNV-1" vertex="1">
          <mxGeometry x="936" y="789" width="40" height="30" as="geometry" />
        </mxCell>
        <mxCell id="_FJ0eizZe0EGMl9TzmrN-117" value="" style="endArrow=none;html=1;rounded=0;entryX=0;entryY=0.863;entryDx=0;entryDy=0;entryPerimeter=0;exitX=1;exitY=0.5;exitDx=0;exitDy=0;" parent="WIyWlLk6GJQsqaUBKTNV-1" source="_FJ0eizZe0EGMl9TzmrN-112" target="_FJ0eizZe0EGMl9TzmrN-89" edge="1">
          <mxGeometry width="50" height="50" relative="1" as="geometry">
            <mxPoint x="706" y="772" as="sourcePoint" />
            <mxPoint x="776" y="752" as="targetPoint" />
          </mxGeometry>
        </mxCell>
        <mxCell id="_FJ0eizZe0EGMl9TzmrN-119" value="1" style="text;html=1;align=center;verticalAlign=middle;resizable=0;points=[];autosize=1;strokeColor=none;fillColor=none;" parent="WIyWlLk6GJQsqaUBKTNV-1" vertex="1">
          <mxGeometry x="725" y="687" width="30" height="30" as="geometry" />
        </mxCell>
        <mxCell id="_FJ0eizZe0EGMl9TzmrN-120" value="" style="endArrow=none;html=1;rounded=0;exitX=0;exitY=0.5;exitDx=0;exitDy=0;entryX=1.005;entryY=0.863;entryDx=0;entryDy=0;entryPerimeter=0;" parent="WIyWlLk6GJQsqaUBKTNV-1" source="_FJ0eizZe0EGMl9TzmrN-94" target="_FJ0eizZe0EGMl9TzmrN-89" edge="1">
          <mxGeometry width="50" height="50" relative="1" as="geometry">
            <mxPoint x="706" y="772" as="sourcePoint" />
            <mxPoint x="756" y="722" as="targetPoint" />
          </mxGeometry>
        </mxCell>
        <mxCell id="_FJ0eizZe0EGMl9TzmrN-121" value="1..*" style="text;html=1;align=center;verticalAlign=middle;resizable=0;points=[];autosize=1;strokeColor=none;fillColor=none;" parent="WIyWlLk6GJQsqaUBKTNV-1" vertex="1">
          <mxGeometry x="976" y="682" width="40" height="30" as="geometry" />
        </mxCell>
        <mxCell id="_FJ0eizZe0EGMl9TzmrN-122" value="" style="endArrow=none;html=1;rounded=0;exitX=0.007;exitY=0.048;exitDx=0;exitDy=0;exitPerimeter=0;entryX=0.995;entryY=0.06;entryDx=0;entryDy=0;entryPerimeter=0;" parent="WIyWlLk6GJQsqaUBKTNV-1" source="_FJ0eizZe0EGMl9TzmrN-105" target="_FJ0eizZe0EGMl9TzmrN-89" edge="1">
          <mxGeometry width="50" height="50" relative="1" as="geometry">
            <mxPoint x="706" y="772" as="sourcePoint" />
            <mxPoint x="756" y="722" as="targetPoint" />
          </mxGeometry>
        </mxCell>
        <mxCell id="_FJ0eizZe0EGMl9TzmrN-123" value="1" style="text;html=1;align=center;verticalAlign=middle;resizable=0;points=[];autosize=1;strokeColor=none;fillColor=none;" parent="WIyWlLk6GJQsqaUBKTNV-1" vertex="1">
          <mxGeometry x="976" y="592" width="30" height="30" as="geometry" />
        </mxCell>
        <mxCell id="_FJ0eizZe0EGMl9TzmrN-124" value="" style="endArrow=none;html=1;rounded=0;exitX=1;exitY=0.5;exitDx=0;exitDy=0;entryX=0;entryY=0.5;entryDx=0;entryDy=0;" parent="WIyWlLk6GJQsqaUBKTNV-1" source="_FJ0eizZe0EGMl9TzmrN-109" target="_FJ0eizZe0EGMl9TzmrN-88" edge="1">
          <mxGeometry width="50" height="50" relative="1" as="geometry">
            <mxPoint x="706" y="772" as="sourcePoint" />
            <mxPoint x="756" y="722" as="targetPoint" />
          </mxGeometry>
        </mxCell>
        <mxCell id="_FJ0eizZe0EGMl9TzmrN-125" value="1&lt;div&gt;&lt;br/&gt;&lt;/div&gt;" style="text;html=1;align=center;verticalAlign=middle;resizable=0;points=[];autosize=1;strokeColor=none;fillColor=none;" parent="WIyWlLk6GJQsqaUBKTNV-1" vertex="1">
          <mxGeometry x="737" y="627" width="30" height="40" as="geometry" />
        </mxCell>
        <mxCell id="_FJ0eizZe0EGMl9TzmrN-126" value="" style="endArrow=none;html=1;rounded=0;entryX=-0.033;entryY=0.05;entryDx=0;entryDy=0;entryPerimeter=0;" parent="WIyWlLk6GJQsqaUBKTNV-1" source="_FJ0eizZe0EGMl9TzmrN-86" target="_FJ0eizZe0EGMl9TzmrN-127" edge="1">
          <mxGeometry width="50" height="50" relative="1" as="geometry">
            <mxPoint x="706" y="572" as="sourcePoint" />
            <mxPoint x="876" y="462" as="targetPoint" />
          </mxGeometry>
        </mxCell>
        <mxCell id="_FJ0eizZe0EGMl9TzmrN-127" value="1&lt;div&gt;&lt;br/&gt;&lt;/div&gt;" style="text;html=1;align=center;verticalAlign=middle;resizable=0;points=[];autosize=1;strokeColor=none;fillColor=none;" parent="WIyWlLk6GJQsqaUBKTNV-1" vertex="1">
          <mxGeometry x="761" y="492" width="30" height="40" as="geometry" />
        </mxCell>
        <mxCell id="KOTBD8KGm-6hm_cV5pZ4-14" value="ESTOQUE" style="swimlane;fontStyle=0;childLayout=stackLayout;horizontal=1;startSize=26;fillColor=none;horizontalStack=0;resizeParent=1;resizeParentMax=0;resizeLast=0;collapsible=1;marginBottom=0;whiteSpace=wrap;html=1;" parent="WIyWlLk6GJQsqaUBKTNV-1" vertex="1">
          <mxGeometry x="1080" y="819" width="170" height="120" as="geometry" />
        </mxCell>
        <mxCell id="KOTBD8KGm-6hm_cV5pZ4-16" value="&lt;div&gt;&lt;span style=&quot;background-color: initial;&quot;&gt;- int quantidade&lt;/span&gt;&lt;br&gt;&lt;/div&gt;&lt;div&gt;&lt;span style=&quot;background-color: initial;&quot;&gt;&lt;br&gt;&lt;/span&gt;&lt;/div&gt;&lt;div&gt;&lt;span style=&quot;background-color: initial;&quot;&gt;- BigDecial: valorCusto&lt;/span&gt;&lt;br&gt;&lt;/div&gt;&lt;div&gt;&lt;br&gt;&lt;/div&gt;&lt;div&gt;- LocalDate: dataEntrada&lt;/div&gt;&lt;div&gt;&lt;br&gt;&lt;/div&gt;&lt;div&gt;&lt;br&gt;&lt;/div&gt;" style="text;strokeColor=none;fillColor=none;align=left;verticalAlign=top;spacingLeft=4;spacingRight=4;overflow=hidden;rotatable=0;points=[[0,0.5],[1,0.5]];portConstraint=eastwest;whiteSpace=wrap;html=1;" parent="KOTBD8KGm-6hm_cV5pZ4-14" vertex="1">
          <mxGeometry y="26" width="170" height="94" as="geometry" />
        </mxCell>
        <mxCell id="KOTBD8KGm-6hm_cV5pZ4-71" value="" style="endArrow=none;html=1;rounded=0;exitX=0.422;exitY=0.019;exitDx=0;exitDy=0;exitPerimeter=0;entryX=1.026;entryY=0.967;entryDx=0;entryDy=0;entryPerimeter=0;" parent="WIyWlLk6GJQsqaUBKTNV-1" target="_FJ0eizZe0EGMl9TzmrN-89" edge="1">
          <mxGeometry width="50" height="50" relative="1" as="geometry">
            <mxPoint x="1123.52" y="818.0260000000001" as="sourcePoint" />
            <mxPoint x="920" y="720" as="targetPoint" />
          </mxGeometry>
        </mxCell>
        <mxCell id="FPt28fSFWxc3YPMSWCWT-1" value="1" style="text;html=1;align=center;verticalAlign=middle;resizable=0;points=[];autosize=1;strokeColor=none;fillColor=none;" parent="WIyWlLk6GJQsqaUBKTNV-1" vertex="1">
          <mxGeometry x="1135" y="789" width="30" height="30" as="geometry" />
        </mxCell>
        <mxCell id="FPt28fSFWxc3YPMSWCWT-2" value="1" style="text;html=1;align=center;verticalAlign=middle;resizable=0;points=[];autosize=1;strokeColor=none;fillColor=none;" parent="WIyWlLk6GJQsqaUBKTNV-1" vertex="1">
          <mxGeometry x="925" y="738" width="30" height="30" as="geometry" />
        </mxCell>
        <mxCell id="FPt28fSFWxc3YPMSWCWT-3" value="Fornecedor" style="swimlane;fontStyle=0;childLayout=stackLayout;horizontal=1;startSize=26;fillColor=none;horizontalStack=0;resizeParent=1;resizeParentMax=0;resizeLast=0;collapsible=1;marginBottom=0;whiteSpace=wrap;html=1;" parent="WIyWlLk6GJQsqaUBKTNV-1" vertex="1">
          <mxGeometry x="1340" y="819" width="140" height="52" as="geometry" />
        </mxCell>
        <mxCell id="FPt28fSFWxc3YPMSWCWT-4" value="- String: nome" style="text;strokeColor=none;fillColor=none;align=left;verticalAlign=top;spacingLeft=4;spacingRight=4;overflow=hidden;rotatable=0;points=[[0,0.5],[1,0.5]];portConstraint=eastwest;whiteSpace=wrap;html=1;" parent="FPt28fSFWxc3YPMSWCWT-3" vertex="1">
          <mxGeometry y="26" width="140" height="26" as="geometry" />
        </mxCell>
        <mxCell id="FPt28fSFWxc3YPMSWCWT-5" value="" style="endArrow=none;html=1;rounded=0;entryX=0;entryY=0.5;entryDx=0;entryDy=0;" parent="WIyWlLk6GJQsqaUBKTNV-1" target="FPt28fSFWxc3YPMSWCWT-4" edge="1">
          <mxGeometry width="50" height="50" relative="1" as="geometry">
            <mxPoint x="1250" y="850" as="sourcePoint" />
            <mxPoint x="816" y="726" as="targetPoint" />
            <Array as="points">
              <mxPoint x="1280" y="860" />
            </Array>
          </mxGeometry>
        </mxCell>
        <mxCell id="FPt28fSFWxc3YPMSWCWT-6" value="1" style="text;html=1;align=center;verticalAlign=middle;resizable=0;points=[];autosize=1;strokeColor=none;fillColor=none;" parent="WIyWlLk6GJQsqaUBKTNV-1" vertex="1">
          <mxGeometry x="1310" y="862" width="30" height="30" as="geometry" />
        </mxCell>
        <mxCell id="FPt28fSFWxc3YPMSWCWT-7" value="Imagens Produto" style="swimlane;fontStyle=0;childLayout=stackLayout;horizontal=1;startSize=26;fillColor=none;horizontalStack=0;resizeParent=1;resizeParentMax=0;resizeLast=0;collapsible=1;marginBottom=0;whiteSpace=wrap;html=1;" parent="WIyWlLk6GJQsqaUBKTNV-1" vertex="1">
          <mxGeometry x="706" y="819" width="140" height="52" as="geometry" />
        </mxCell>
        <mxCell id="FPt28fSFWxc3YPMSWCWT-8" value="- String: urlImagem" style="text;strokeColor=none;fillColor=none;align=left;verticalAlign=top;spacingLeft=4;spacingRight=4;overflow=hidden;rotatable=0;points=[[0,0.5],[1,0.5]];portConstraint=eastwest;whiteSpace=wrap;html=1;" parent="FPt28fSFWxc3YPMSWCWT-7" vertex="1">
          <mxGeometry y="26" width="140" height="26" as="geometry" />
        </mxCell>
        <mxCell id="FPt28fSFWxc3YPMSWCWT-9" value="" style="endArrow=none;html=1;rounded=0;exitX=0.5;exitY=0;exitDx=0;exitDy=0;entryX=0.336;entryY=1;entryDx=0;entryDy=0;entryPerimeter=0;" parent="WIyWlLk6GJQsqaUBKTNV-1" source="FPt28fSFWxc3YPMSWCWT-7" target="_FJ0eizZe0EGMl9TzmrN-89" edge="1">
          <mxGeometry width="50" height="50" relative="1" as="geometry">
            <mxPoint x="747" y="641" as="sourcePoint" />
            <mxPoint x="816" y="582" as="targetPoint" />
          </mxGeometry>
        </mxCell>
        <mxCell id="FPt28fSFWxc3YPMSWCWT-10" value="1..4" style="text;html=1;align=center;verticalAlign=middle;resizable=0;points=[];autosize=1;strokeColor=none;fillColor=none;" parent="WIyWlLk6GJQsqaUBKTNV-1" vertex="1">
          <mxGeometry x="737" y="789" width="40" height="30" as="geometry" />
        </mxCell>
        <mxCell id="FPt28fSFWxc3YPMSWCWT-11" value="Pedido" style="swimlane;fontStyle=0;childLayout=stackLayout;horizontal=1;startSize=26;fillColor=none;horizontalStack=0;resizeParent=1;resizeParentMax=0;resizeLast=0;collapsible=1;marginBottom=0;whiteSpace=wrap;html=1;" parent="WIyWlLk6GJQsqaUBKTNV-1" vertex="1">
          <mxGeometry x="666" y="990" width="170" height="110" as="geometry" />
        </mxCell>
        <mxCell id="FPt28fSFWxc3YPMSWCWT-12" value="- Long: id&lt;br&gt;&lt;br&gt;- boolean: ativo" style="text;strokeColor=none;fillColor=none;align=left;verticalAlign=top;spacingLeft=4;spacingRight=4;overflow=hidden;rotatable=0;points=[[0,0.5],[1,0.5]];portConstraint=eastwest;whiteSpace=wrap;html=1;" parent="FPt28fSFWxc3YPMSWCWT-11" vertex="1">
          <mxGeometry y="26" width="170" height="26" as="geometry" />
        </mxCell>
        <mxCell id="FPt28fSFWxc3YPMSWCWT-13" value="&lt;div&gt;- LocalDate: dataPedido&lt;/div&gt;&lt;div&gt;&lt;br&gt;&lt;/div&gt;&lt;div&gt;- BigDecimal: valorTotal&lt;/div&gt;&lt;div&gt;&lt;br&gt;&lt;/div&gt;" style="text;strokeColor=none;fillColor=none;align=left;verticalAlign=top;spacingLeft=4;spacingRight=4;overflow=hidden;rotatable=0;points=[[0,0.5],[1,0.5]];portConstraint=eastwest;whiteSpace=wrap;html=1;" parent="FPt28fSFWxc3YPMSWCWT-11" vertex="1">
          <mxGeometry y="52" width="170" height="58" as="geometry" />
        </mxCell>
        <mxCell id="FPt28fSFWxc3YPMSWCWT-14" value="Itens" style="swimlane;fontStyle=0;childLayout=stackLayout;horizontal=1;startSize=28;fillColor=none;horizontalStack=0;resizeParent=1;resizeParentMax=0;resizeLast=0;collapsible=1;marginBottom=0;whiteSpace=wrap;html=1;" parent="WIyWlLk6GJQsqaUBKTNV-1" vertex="1">
          <mxGeometry x="510" y="801" width="160" height="120" as="geometry" />
        </mxCell>
        <mxCell id="FPt28fSFWxc3YPMSWCWT-15" value="- Long: id&lt;br&gt;&lt;br&gt;- int: quantidade&lt;div&gt;&lt;br&gt;&lt;/div&gt;&lt;div&gt;- BigDecimal: valorUnitario&lt;/div&gt;" style="text;strokeColor=none;fillColor=none;align=left;verticalAlign=top;spacingLeft=4;spacingRight=4;overflow=hidden;rotatable=0;points=[[0,0.5],[1,0.5]];portConstraint=eastwest;whiteSpace=wrap;html=1;" parent="FPt28fSFWxc3YPMSWCWT-14" vertex="1">
          <mxGeometry y="28" width="160" height="92" as="geometry" />
        </mxCell>
        <mxCell id="FPt28fSFWxc3YPMSWCWT-17" value="" style="endArrow=none;html=1;rounded=0;entryX=0.006;entryY=0.194;entryDx=0;entryDy=0;entryPerimeter=0;exitX=1.007;exitY=0.342;exitDx=0;exitDy=0;exitPerimeter=0;" parent="WIyWlLk6GJQsqaUBKTNV-1" source="_FJ0eizZe0EGMl9TzmrN-36" target="FPt28fSFWxc3YPMSWCWT-13" edge="1">
          <mxGeometry width="50" height="50" relative="1" as="geometry">
            <mxPoint x="116" y="1062" as="sourcePoint" />
            <mxPoint x="246" y="1052" as="targetPoint" />
          </mxGeometry>
        </mxCell>
        <mxCell id="FPt28fSFWxc3YPMSWCWT-18" value="0..*" style="text;html=1;align=center;verticalAlign=middle;resizable=0;points=[];autosize=1;strokeColor=none;fillColor=none;" parent="WIyWlLk6GJQsqaUBKTNV-1" vertex="1">
          <mxGeometry x="626" y="1057" width="40" height="30" as="geometry" />
        </mxCell>
        <mxCell id="FPt28fSFWxc3YPMSWCWT-19" value="" style="endArrow=none;html=1;rounded=0;exitX=0.5;exitY=0;exitDx=0;exitDy=0;entryX=0.756;entryY=1.011;entryDx=0;entryDy=0;entryPerimeter=0;" parent="WIyWlLk6GJQsqaUBKTNV-1" source="FPt28fSFWxc3YPMSWCWT-11" target="FPt28fSFWxc3YPMSWCWT-15" edge="1">
          <mxGeometry width="50" height="50" relative="1" as="geometry">
            <mxPoint x="397" y="992" as="sourcePoint" />
            <mxPoint x="640" y="920" as="targetPoint" />
          </mxGeometry>
        </mxCell>
        <mxCell id="FPt28fSFWxc3YPMSWCWT-21" value="1..*" style="text;html=1;align=center;verticalAlign=middle;resizable=0;points=[];autosize=1;strokeColor=none;fillColor=none;" parent="WIyWlLk6GJQsqaUBKTNV-1" vertex="1">
          <mxGeometry x="610" y="921" width="40" height="30" as="geometry" />
        </mxCell>
        <mxCell id="FPt28fSFWxc3YPMSWCWT-22" value="" style="endArrow=none;html=1;rounded=0;entryX=-0.009;entryY=0.954;entryDx=0;entryDy=0;entryPerimeter=0;" parent="WIyWlLk6GJQsqaUBKTNV-1" target="_FJ0eizZe0EGMl9TzmrN-89" edge="1">
          <mxGeometry width="50" height="50" relative="1" as="geometry">
            <mxPoint x="620" y="800" as="sourcePoint" />
            <mxPoint x="842" y="749" as="targetPoint" />
          </mxGeometry>
        </mxCell>
        <mxCell id="FPt28fSFWxc3YPMSWCWT-23" value="1" style="text;html=1;align=center;verticalAlign=middle;resizable=0;points=[];autosize=1;strokeColor=none;fillColor=none;" parent="WIyWlLk6GJQsqaUBKTNV-1" vertex="1">
          <mxGeometry x="766" y="714" width="30" height="30" as="geometry" />
        </mxCell>
        <mxCell id="FPt28fSFWxc3YPMSWCWT-36" value="Cupom" style="swimlane;fontStyle=0;childLayout=stackLayout;horizontal=1;startSize=30;horizontalStack=0;resizeParent=1;resizeParentMax=0;resizeLast=0;collapsible=1;marginBottom=0;whiteSpace=wrap;html=1;" parent="WIyWlLk6GJQsqaUBKTNV-1" vertex="1">
          <mxGeometry x="505.5" y="1082" width="114.5" height="140" as="geometry" />
        </mxCell>
        <mxCell id="FPt28fSFWxc3YPMSWCWT-37" value="&lt;div&gt;- Long: id&lt;/div&gt;&lt;div&gt;&lt;br&gt;&lt;/div&gt;&lt;div&gt;- boolean: status&lt;/div&gt;&lt;div&gt;&lt;br&gt;&lt;div&gt;- BigDecimal: valor&lt;/div&gt;&lt;/div&gt;" style="text;strokeColor=none;fillColor=none;align=left;verticalAlign=middle;spacingLeft=4;spacingRight=4;overflow=hidden;points=[[0,0.5],[1,0.5]];portConstraint=eastwest;rotatable=0;whiteSpace=wrap;html=1;" parent="FPt28fSFWxc3YPMSWCWT-36" vertex="1">
          <mxGeometry y="30" width="114.5" height="110" as="geometry" />
        </mxCell>
        <mxCell id="FPt28fSFWxc3YPMSWCWT-45" value="Pagamento" style="swimlane;fontStyle=0;childLayout=stackLayout;horizontal=1;startSize=26;fillColor=none;horizontalStack=0;resizeParent=1;resizeParentMax=0;resizeLast=0;collapsible=1;marginBottom=0;whiteSpace=wrap;html=1;" parent="WIyWlLk6GJQsqaUBKTNV-1" vertex="1">
          <mxGeometry x="540" y="1330" width="169" height="110" as="geometry" />
        </mxCell>
        <mxCell id="FPt28fSFWxc3YPMSWCWT-46" value="- Long: id&lt;br&gt;&lt;br&gt;- boolean: ativo" style="text;strokeColor=none;fillColor=none;align=left;verticalAlign=top;spacingLeft=4;spacingRight=4;overflow=hidden;rotatable=0;points=[[0,0.5],[1,0.5]];portConstraint=eastwest;whiteSpace=wrap;html=1;" parent="FPt28fSFWxc3YPMSWCWT-45" vertex="1">
          <mxGeometry y="26" width="169" height="26" as="geometry" />
        </mxCell>
        <mxCell id="FPt28fSFWxc3YPMSWCWT-47" value="- BigDecimal: valorTotal&lt;br&gt;&lt;br&gt;&amp;nbsp;- Status: status&lt;br&gt;&lt;br&gt;&lt;div&gt;&lt;br&gt;&lt;/div&gt;" style="text;strokeColor=none;fillColor=none;align=left;verticalAlign=top;spacingLeft=4;spacingRight=4;overflow=hidden;rotatable=0;points=[[0,0.5],[1,0.5]];portConstraint=eastwest;whiteSpace=wrap;html=1;" parent="FPt28fSFWxc3YPMSWCWT-45" vertex="1">
          <mxGeometry y="52" width="169" height="58" as="geometry" />
        </mxCell>
        <mxCell id="FPt28fSFWxc3YPMSWCWT-54" value="" style="endArrow=none;html=1;rounded=0;exitX=0.994;exitY=0.314;exitDx=0;exitDy=0;exitPerimeter=0;entryX=-0.006;entryY=0.138;entryDx=0;entryDy=0;entryPerimeter=0;" parent="WIyWlLk6GJQsqaUBKTNV-1" source="_FJ0eizZe0EGMl9TzmrN-49" target="FPt28fSFWxc3YPMSWCWT-47" edge="1">
          <mxGeometry width="50" height="50" relative="1" as="geometry">
            <mxPoint x="514" y="1210" as="sourcePoint" />
            <mxPoint x="564" y="1160" as="targetPoint" />
          </mxGeometry>
        </mxCell>
        <mxCell id="FPt28fSFWxc3YPMSWCWT-55" value="0..2" style="text;html=1;align=center;verticalAlign=middle;resizable=0;points=[];autosize=1;strokeColor=none;fillColor=none;" parent="WIyWlLk6GJQsqaUBKTNV-1" vertex="1">
          <mxGeometry x="497" y="1390" width="40" height="30" as="geometry" />
        </mxCell>
        <mxCell id="FPt28fSFWxc3YPMSWCWT-65" value="" style="endArrow=none;html=1;rounded=0;exitX=0.535;exitY=1.037;exitDx=0;exitDy=0;exitPerimeter=0;entryX=0.959;entryY=-0.027;entryDx=0;entryDy=0;entryPerimeter=0;" parent="WIyWlLk6GJQsqaUBKTNV-1" source="FPt28fSFWxc3YPMSWCWT-13" target="FPt28fSFWxc3YPMSWCWT-45" edge="1">
          <mxGeometry width="50" height="50" relative="1" as="geometry">
            <mxPoint x="660" y="1110" as="sourcePoint" />
            <mxPoint x="714.3741149288217" y="1300" as="targetPoint" />
          </mxGeometry>
        </mxCell>
        <mxCell id="FPt28fSFWxc3YPMSWCWT-76" value="" style="endArrow=none;html=1;rounded=0;entryX=1.013;entryY=0.737;entryDx=0;entryDy=0;entryPerimeter=0;exitX=0.336;exitY=-0.008;exitDx=0;exitDy=0;exitPerimeter=0;" parent="WIyWlLk6GJQsqaUBKTNV-1" source="FPt28fSFWxc3YPMSWCWT-36" target="_FJ0eizZe0EGMl9TzmrN-36" edge="1">
          <mxGeometry width="50" height="50" relative="1" as="geometry">
            <mxPoint x="450" y="1220" as="sourcePoint" />
            <mxPoint x="500" y="1170" as="targetPoint" />
          </mxGeometry>
        </mxCell>
        <mxCell id="FPt28fSFWxc3YPMSWCWT-78" value="" style="endArrow=none;html=1;rounded=0;exitX=0.739;exitY=1;exitDx=0;exitDy=0;exitPerimeter=0;" parent="WIyWlLk6GJQsqaUBKTNV-1" source="FPt28fSFWxc3YPMSWCWT-37" edge="1">
          <mxGeometry width="50" height="50" relative="1" as="geometry">
            <mxPoint x="510" y="1240" as="sourcePoint" />
            <mxPoint x="646" y="1330" as="targetPoint" />
            <Array as="points" />
          </mxGeometry>
        </mxCell>
        <mxCell id="FPt28fSFWxc3YPMSWCWT-80" value="0..*" style="text;html=1;align=center;verticalAlign=middle;resizable=0;points=[];autosize=1;strokeColor=none;fillColor=none;" parent="WIyWlLk6GJQsqaUBKTNV-1" vertex="1">
          <mxGeometry x="533.5" y="1056" width="40" height="30" as="geometry" />
        </mxCell>
        <mxCell id="FPt28fSFWxc3YPMSWCWT-81" value="1" style="text;html=1;align=center;verticalAlign=middle;resizable=0;points=[];autosize=1;strokeColor=none;fillColor=none;" parent="WIyWlLk6GJQsqaUBKTNV-1" vertex="1">
          <mxGeometry x="666" y="1300" width="30" height="30" as="geometry" />
        </mxCell>
        <mxCell id="FPt28fSFWxc3YPMSWCWT-82" value="1" style="text;html=1;align=center;verticalAlign=middle;resizable=0;points=[];autosize=1;strokeColor=none;fillColor=none;" parent="WIyWlLk6GJQsqaUBKTNV-1" vertex="1">
          <mxGeometry x="600" y="1300" width="30" height="30" as="geometry" />
        </mxCell>
        <mxCell id="FPt28fSFWxc3YPMSWCWT-87" value="Status" style="swimlane;fontStyle=0;childLayout=stackLayout;horizontal=1;startSize=26;fillColor=none;horizontalStack=0;resizeParent=1;resizeParentMax=0;resizeLast=0;collapsible=1;marginBottom=0;whiteSpace=wrap;html=1;" parent="WIyWlLk6GJQsqaUBKTNV-1" vertex="1">
          <mxGeometry x="855" y="1368" width="170" height="170" as="geometry" />
        </mxCell>
        <mxCell id="FPt28fSFWxc3YPMSWCWT-89" value="EM_PROCESSAMENTO&lt;div&gt;&lt;br&gt;&lt;/div&gt;&lt;div&gt;EM_TRANSITO&lt;/div&gt;&lt;div&gt;&lt;br&gt;&lt;/div&gt;&lt;div&gt;ENTREGUE&lt;/div&gt;&lt;div&gt;&lt;br&gt;&lt;/div&gt;&lt;div&gt;EM_TROCA&lt;/div&gt;&lt;div&gt;&lt;br&gt;&lt;/div&gt;&lt;div&gt;TROCA_AUTORIZADA&lt;/div&gt;&lt;div&gt;&lt;br&gt;&lt;/div&gt;&lt;div&gt;&lt;br&gt;&lt;/div&gt;" style="text;strokeColor=none;fillColor=none;align=left;verticalAlign=top;spacingLeft=4;spacingRight=4;overflow=hidden;rotatable=0;points=[[0,0.5],[1,0.5]];portConstraint=eastwest;whiteSpace=wrap;html=1;" parent="FPt28fSFWxc3YPMSWCWT-87" vertex="1">
          <mxGeometry y="26" width="170" height="144" as="geometry" />
        </mxCell>
        <mxCell id="FPt28fSFWxc3YPMSWCWT-91" value="" style="endArrow=none;html=1;rounded=0;entryX=-0.006;entryY=0.146;entryDx=0;entryDy=0;entryPerimeter=0;exitX=1;exitY=0.5;exitDx=0;exitDy=0;" parent="WIyWlLk6GJQsqaUBKTNV-1" source="FPt28fSFWxc3YPMSWCWT-47" target="FPt28fSFWxc3YPMSWCWT-89" edge="1">
          <mxGeometry width="50" height="50" relative="1" as="geometry">
            <mxPoint x="710" y="1370" as="sourcePoint" />
            <mxPoint x="780" y="1383" as="targetPoint" />
            <Array as="points" />
          </mxGeometry>
        </mxCell>
        <mxCell id="FPt28fSFWxc3YPMSWCWT-92" value="1" style="text;html=1;align=center;verticalAlign=middle;resizable=0;points=[];autosize=1;strokeColor=none;fillColor=none;" parent="WIyWlLk6GJQsqaUBKTNV-1" vertex="1">
          <mxGeometry x="816" y="1420" width="30" height="30" as="geometry" />
        </mxCell>
        <mxCell id="FPt28fSFWxc3YPMSWCWT-93" value="Administrador" style="swimlane;fontStyle=0;childLayout=stackLayout;horizontal=1;startSize=26;fillColor=none;horizontalStack=0;resizeParent=1;resizeParentMax=0;resizeLast=0;collapsible=1;marginBottom=0;whiteSpace=wrap;html=1;" parent="WIyWlLk6GJQsqaUBKTNV-1" vertex="1">
          <mxGeometry x="1080" y="1150" width="160" height="170" as="geometry" />
        </mxCell>
        <mxCell id="FPt28fSFWxc3YPMSWCWT-94" value="- Long: id" style="text;strokeColor=none;fillColor=none;align=left;verticalAlign=top;spacingLeft=4;spacingRight=4;overflow=hidden;rotatable=0;points=[[0,0.5],[1,0.5]];portConstraint=eastwest;whiteSpace=wrap;html=1;" parent="FPt28fSFWxc3YPMSWCWT-93" vertex="1">
          <mxGeometry y="26" width="160" height="26" as="geometry" />
        </mxCell>
        <mxCell id="FPt28fSFWxc3YPMSWCWT-95" value="-&amp;nbsp; String: nome" style="text;strokeColor=none;fillColor=none;align=left;verticalAlign=top;spacingLeft=4;spacingRight=4;overflow=hidden;rotatable=0;points=[[0,0.5],[1,0.5]];portConstraint=eastwest;whiteSpace=wrap;html=1;" parent="FPt28fSFWxc3YPMSWCWT-93" vertex="1">
          <mxGeometry y="52" width="160" height="26" as="geometry" />
        </mxCell>
        <mxCell id="FPt28fSFWxc3YPMSWCWT-96" value="- String: email&lt;br&gt;&lt;div&gt;&lt;br&gt;&lt;/div&gt;&lt;div&gt;- String: senha&lt;/div&gt;&lt;div&gt;&lt;br&gt;&lt;/div&gt;&lt;div&gt;- String: confirmarSenha&lt;/div&gt;&lt;div&gt;&lt;br&gt;&lt;/div&gt;&lt;div&gt;&lt;br&gt;&lt;/div&gt;" style="text;strokeColor=none;fillColor=none;align=left;verticalAlign=top;spacingLeft=4;spacingRight=4;overflow=hidden;rotatable=0;points=[[0,0.5],[1,0.5]];portConstraint=eastwest;whiteSpace=wrap;html=1;" parent="FPt28fSFWxc3YPMSWCWT-93" vertex="1">
          <mxGeometry y="78" width="160" height="92" as="geometry" />
        </mxCell>
        <mxCell id="FPt28fSFWxc3YPMSWCWT-99" value="" style="endArrow=none;html=1;rounded=0;exitX=-0.025;exitY=0.793;exitDx=0;exitDy=0;exitPerimeter=0;entryX=1;entryY=0.5;entryDx=0;entryDy=0;" parent="WIyWlLk6GJQsqaUBKTNV-1" source="FPt28fSFWxc3YPMSWCWT-96" target="FPt28fSFWxc3YPMSWCWT-46" edge="1">
          <mxGeometry width="50" height="50" relative="1" as="geometry">
            <mxPoint x="767" y="1143" as="sourcePoint" />
            <mxPoint x="712" y="1337" as="targetPoint" />
          </mxGeometry>
        </mxCell>
        <mxCell id="FPt28fSFWxc3YPMSWCWT-100" value="1..*" style="text;html=1;align=center;verticalAlign=middle;resizable=0;points=[];autosize=1;strokeColor=none;fillColor=none;" parent="WIyWlLk6GJQsqaUBKTNV-1" vertex="1">
          <mxGeometry x="700" y="1368" width="40" height="30" as="geometry" />
        </mxCell>
        <mxCell id="FPt28fSFWxc3YPMSWCWT-103" value="" style="endArrow=none;html=1;rounded=0;entryX=0;entryY=0.5;entryDx=0;entryDy=0;exitX=1.017;exitY=0.678;exitDx=0;exitDy=0;exitPerimeter=0;" parent="WIyWlLk6GJQsqaUBKTNV-1" source="FPt28fSFWxc3YPMSWCWT-37" target="FPt28fSFWxc3YPMSWCWT-94" edge="1">
          <mxGeometry width="50" height="50" relative="1" as="geometry">
            <mxPoint x="499" y="1245" as="sourcePoint" />
            <mxPoint x="943" y="1274" as="targetPoint" />
          </mxGeometry>
        </mxCell>
        <mxCell id="FPt28fSFWxc3YPMSWCWT-104" value="1..*" style="text;html=1;align=center;verticalAlign=middle;resizable=0;points=[];autosize=1;strokeColor=none;fillColor=none;" parent="WIyWlLk6GJQsqaUBKTNV-1" vertex="1">
          <mxGeometry x="620" y="1190" width="40" height="30" as="geometry" />
        </mxCell>
        <mxCell id="FPt28fSFWxc3YPMSWCWT-105" value="" style="endArrow=none;html=1;rounded=0;entryX=0.75;entryY=0;entryDx=0;entryDy=0;" parent="WIyWlLk6GJQsqaUBKTNV-1" target="FPt28fSFWxc3YPMSWCWT-93" edge="1">
          <mxGeometry width="50" height="50" relative="1" as="geometry">
            <mxPoint x="1200" y="940" as="sourcePoint" />
            <mxPoint x="960" y="1209" as="targetPoint" />
          </mxGeometry>
        </mxCell>
        <mxCell id="FPt28fSFWxc3YPMSWCWT-106" value="1..*" style="text;html=1;align=center;verticalAlign=middle;resizable=0;points=[];autosize=1;strokeColor=none;fillColor=none;" parent="WIyWlLk6GJQsqaUBKTNV-1" vertex="1">
          <mxGeometry x="1200" y="947" width="40" height="30" as="geometry" />
        </mxCell>
        <mxCell id="FPt28fSFWxc3YPMSWCWT-107" value="Troca" style="swimlane;fontStyle=0;childLayout=stackLayout;horizontal=1;startSize=26;fillColor=none;horizontalStack=0;resizeParent=1;resizeParentMax=0;resizeLast=0;collapsible=1;marginBottom=0;whiteSpace=wrap;html=1;" parent="WIyWlLk6GJQsqaUBKTNV-1" vertex="1">
          <mxGeometry x="922" y="958" width="78" height="54" as="geometry" />
        </mxCell>
        <mxCell id="FPt28fSFWxc3YPMSWCWT-108" value="- Long: id&lt;br&gt;&lt;br&gt;- boolean: ativo" style="text;strokeColor=none;fillColor=none;align=left;verticalAlign=top;spacingLeft=4;spacingRight=4;overflow=hidden;rotatable=0;points=[[0,0.5],[1,0.5]];portConstraint=eastwest;whiteSpace=wrap;html=1;" parent="FPt28fSFWxc3YPMSWCWT-107" vertex="1">
          <mxGeometry y="26" width="78" height="26" as="geometry" />
        </mxCell>
        <mxCell id="FPt28fSFWxc3YPMSWCWT-109" value="&lt;div&gt;&lt;br&gt;&lt;/div&gt;" style="text;strokeColor=none;fillColor=none;align=left;verticalAlign=top;spacingLeft=4;spacingRight=4;overflow=hidden;rotatable=0;points=[[0,0.5],[1,0.5]];portConstraint=eastwest;whiteSpace=wrap;html=1;" parent="FPt28fSFWxc3YPMSWCWT-107" vertex="1">
          <mxGeometry y="52" width="78" height="2" as="geometry" />
        </mxCell>
        <mxCell id="FPt28fSFWxc3YPMSWCWT-110" value="Devolucao" style="swimlane;fontStyle=0;childLayout=stackLayout;horizontal=1;startSize=26;fillColor=none;horizontalStack=0;resizeParent=1;resizeParentMax=0;resizeLast=0;collapsible=1;marginBottom=0;whiteSpace=wrap;html=1;" parent="WIyWlLk6GJQsqaUBKTNV-1" vertex="1">
          <mxGeometry x="920" y="1032" width="80" height="54" as="geometry" />
        </mxCell>
        <mxCell id="FPt28fSFWxc3YPMSWCWT-111" value="- Long: id&lt;br&gt;&lt;br&gt;- boolean: ativo" style="text;strokeColor=none;fillColor=none;align=left;verticalAlign=top;spacingLeft=4;spacingRight=4;overflow=hidden;rotatable=0;points=[[0,0.5],[1,0.5]];portConstraint=eastwest;whiteSpace=wrap;html=1;" parent="FPt28fSFWxc3YPMSWCWT-110" vertex="1">
          <mxGeometry y="26" width="80" height="26" as="geometry" />
        </mxCell>
        <mxCell id="FPt28fSFWxc3YPMSWCWT-112" value="&lt;div&gt;&lt;br&gt;&lt;/div&gt;" style="text;strokeColor=none;fillColor=none;align=left;verticalAlign=top;spacingLeft=4;spacingRight=4;overflow=hidden;rotatable=0;points=[[0,0.5],[1,0.5]];portConstraint=eastwest;whiteSpace=wrap;html=1;" parent="FPt28fSFWxc3YPMSWCWT-110" vertex="1">
          <mxGeometry y="52" width="80" height="2" as="geometry" />
        </mxCell>
        <mxCell id="FPt28fSFWxc3YPMSWCWT-114" value="" style="endArrow=none;html=1;rounded=0;exitX=0;exitY=0.5;exitDx=0;exitDy=0;entryX=1;entryY=0.5;entryDx=0;entryDy=0;" parent="WIyWlLk6GJQsqaUBKTNV-1" source="FPt28fSFWxc3YPMSWCWT-108" target="FPt28fSFWxc3YPMSWCWT-12" edge="1">
          <mxGeometry width="50" height="50" relative="1" as="geometry">
            <mxPoint x="761" y="1000" as="sourcePoint" />
            <mxPoint x="641" y="932" as="targetPoint" />
          </mxGeometry>
        </mxCell>
        <mxCell id="FPt28fSFWxc3YPMSWCWT-115" value="" style="endArrow=none;html=1;rounded=0;exitX=0.011;exitY=0.038;exitDx=0;exitDy=0;entryX=1.018;entryY=0.741;entryDx=0;entryDy=0;entryPerimeter=0;exitPerimeter=0;" parent="WIyWlLk6GJQsqaUBKTNV-1" source="FPt28fSFWxc3YPMSWCWT-111" target="FPt28fSFWxc3YPMSWCWT-13" edge="1">
          <mxGeometry width="50" height="50" relative="1" as="geometry">
            <mxPoint x="930" y="982" as="sourcePoint" />
            <mxPoint x="846" y="1039" as="targetPoint" />
          </mxGeometry>
        </mxCell>
        <mxCell id="FPt28fSFWxc3YPMSWCWT-116" value="0..*" style="text;html=1;align=center;verticalAlign=middle;resizable=0;points=[];autosize=1;strokeColor=none;fillColor=none;" parent="WIyWlLk6GJQsqaUBKTNV-1" vertex="1">
          <mxGeometry x="880" y="1038" width="40" height="30" as="geometry" />
        </mxCell>
        <mxCell id="FPt28fSFWxc3YPMSWCWT-117" value="0..*" style="text;html=1;align=center;verticalAlign=middle;resizable=0;points=[];autosize=1;strokeColor=none;fillColor=none;" parent="WIyWlLk6GJQsqaUBKTNV-1" vertex="1">
          <mxGeometry x="880" y="968" width="40" height="30" as="geometry" />
        </mxCell>
        <mxCell id="FPt28fSFWxc3YPMSWCWT-118" value="" style="endArrow=none;html=1;rounded=0;exitX=1;exitY=0.5;exitDx=0;exitDy=0;entryX=0.181;entryY=0.006;entryDx=0;entryDy=0;entryPerimeter=0;" parent="WIyWlLk6GJQsqaUBKTNV-1" source="FPt28fSFWxc3YPMSWCWT-111" target="FPt28fSFWxc3YPMSWCWT-93" edge="1">
          <mxGeometry width="50" height="50" relative="1" as="geometry">
            <mxPoint x="931" y="1069" as="sourcePoint" />
            <mxPoint x="849" y="1095" as="targetPoint" />
          </mxGeometry>
        </mxCell>
        <mxCell id="FPt28fSFWxc3YPMSWCWT-119" value="" style="endArrow=none;html=1;rounded=0;exitX=1;exitY=0.077;exitDx=0;exitDy=0;exitPerimeter=0;" parent="WIyWlLk6GJQsqaUBKTNV-1" source="FPt28fSFWxc3YPMSWCWT-108" edge="1">
          <mxGeometry width="50" height="50" relative="1" as="geometry">
            <mxPoint x="1010" y="1081" as="sourcePoint" />
            <mxPoint x="1179" y="1150" as="targetPoint" />
          </mxGeometry>
        </mxCell>
        <mxCell id="FPt28fSFWxc3YPMSWCWT-120" value="1..*" style="text;html=1;align=center;verticalAlign=middle;resizable=0;points=[];autosize=1;strokeColor=none;fillColor=none;" parent="WIyWlLk6GJQsqaUBKTNV-1" vertex="1">
          <mxGeometry x="990" y="1088" width="40" height="30" as="geometry" />
        </mxCell>
        <mxCell id="FPt28fSFWxc3YPMSWCWT-121" value="1..*" style="text;html=1;align=center;verticalAlign=middle;resizable=0;points=[];autosize=1;strokeColor=none;fillColor=none;" parent="WIyWlLk6GJQsqaUBKTNV-1" vertex="1">
          <mxGeometry x="1000" y="968" width="40" height="30" as="geometry" />
        </mxCell>
        <mxCell id="n7KRXHC7jNBXdvyL9_9l-0" value="1..*" style="text;html=1;align=center;verticalAlign=middle;resizable=0;points=[];autosize=1;strokeColor=none;fillColor=none;" parent="WIyWlLk6GJQsqaUBKTNV-1" vertex="1">
          <mxGeometry x="761" y="555" width="40" height="30" as="geometry" />
        </mxCell>
        <mxCell id="79N1_9jh-N3rGnWUQwC0-0" value="TipoCupom" style="swimlane;fontStyle=0;childLayout=stackLayout;horizontal=1;startSize=30;horizontalStack=0;resizeParent=1;resizeParentMax=0;resizeLast=0;collapsible=1;marginBottom=0;whiteSpace=wrap;html=1;" parent="WIyWlLk6GJQsqaUBKTNV-1" vertex="1">
          <mxGeometry x="356" y="1128" width="114.5" height="80" as="geometry" />
        </mxCell>
        <mxCell id="79N1_9jh-N3rGnWUQwC0-1" value="TROCA&lt;div&gt;&lt;br&gt;&lt;/div&gt;&lt;div&gt;DEVOLUCAO&lt;/div&gt;" style="text;strokeColor=none;fillColor=none;align=left;verticalAlign=middle;spacingLeft=4;spacingRight=4;overflow=hidden;points=[[0,0.5],[1,0.5]];portConstraint=eastwest;rotatable=0;whiteSpace=wrap;html=1;" parent="79N1_9jh-N3rGnWUQwC0-0" vertex="1">
          <mxGeometry y="30" width="114.5" height="50" as="geometry" />
        </mxCell>
        <mxCell id="79N1_9jh-N3rGnWUQwC0-2" value="" style="endArrow=none;html=1;rounded=0;entryX=-0.004;entryY=0.345;entryDx=0;entryDy=0;exitX=1;exitY=0.5;exitDx=0;exitDy=0;entryPerimeter=0;" parent="WIyWlLk6GJQsqaUBKTNV-1" source="79N1_9jh-N3rGnWUQwC0-1" target="FPt28fSFWxc3YPMSWCWT-37" edge="1">
          <mxGeometry width="50" height="50" relative="1" as="geometry">
            <mxPoint x="632" y="1197" as="sourcePoint" />
            <mxPoint x="1090" y="1199" as="targetPoint" />
          </mxGeometry>
        </mxCell>
        <mxCell id="79N1_9jh-N3rGnWUQwC0-3" value="1" style="text;html=1;align=center;verticalAlign=middle;resizable=0;points=[];autosize=1;strokeColor=none;fillColor=none;" parent="WIyWlLk6GJQsqaUBKTNV-1" vertex="1">
          <mxGeometry x="465" y="1178" width="30" height="30" as="geometry" />
        </mxCell>
      </root>
    </mxGraphModel>
  </diagram>
</mxfile>
